<svg width="10" height="147" xmlns="http://www.w3.org/2000/svg" xmlns:xlink="http://www.w3.org/1999/xlink" xmlns:svgjs="http://svgjs.com/svgjs" viewBox="0.469 0 9.062 147" fill="#aec3da"><svg xmlns="http://www.w3.org/2000/svg" width="10" height="147" viewBox="1 2 9 146"><path paint-order="stroke fill markers" fill-rule="evenodd" d="M5 109h1v7H5v-7zM5 2h1v6H5V2zm0 12h1v7H5v-7zm0 12h1v6H5v-6zM5 141h1v7H5v-7zM1.711 7l-.71-.715L5.266 2l.71.714L1.712 7zM10 6.285L9.289 7 5.022 2.714 5.733 2 10 6.285zM5 125h1v7H5v-7zm-3 3h7v1H2v-1z"/></svg></svg>