<svg width="41" height="36" xmlns="http://www.w3.org/2000/svg" xmlns:xlink="http://www.w3.org/1999/xlink" xmlns:svgjs="http://svgjs.com/svgjs" viewBox="0.015 0 40.97 36" fill="#a3acb5"><svg xmlns="http://www.w3.org/2000/svg" width="41" height="36" viewBox="2.061 1 39.831 34.999"><path paint-order="stroke fill markers" fill-rule="evenodd" d="M41.812 33.288l-1.579-5.502a.809.809 0 0 0-.188-.3c-.977-2.977-3.383-5.276-6.429-6.066l-.45-.075a1.878 1.878 0 0 0-1.918.602c-1.654 1.885-3.76 2.035-5.977 2.035-2.218 0-4.324-.15-5.978-2.035a1.878 1.878 0 0 0-1.917-.602l-.451.112a9.334 9.334 0 0 0-5.489 4.03H6.699c-.037 0-.037 0-.075-.035 0-.038-.038-.077-.038-.152l.978-3.503c.864-2.75 2.519-3.58 5.752-4.408a.737.737 0 0 0 .338-.189c.263.227.564.415.865.565.113.075.225.075.338.075.263 0 .526-.15.677-.413a.756.756 0 0 0-.339-1.018c-1.729-.904-2.97-3.465-2.97-6.105 0-2.334 1.918-4.256 4.249-4.256.45 0 .864.076 1.278.19a8.635 8.635 0 0 0-.64 3.277c0 6.442 3.873 11.866 8.46 11.866 4.51 0 8.496-5.536 8.496-11.866C34.068 4.805 30.27 1 25.57 1a8.452 8.452 0 0 0-7.105 3.88 6.014 6.014 0 0 0-1.992-.338c-2.03 0-3.835 1.092-4.85 2.713-.075-.078-.15-.114-.226-.152-.563-.3-1.127-.414-1.766-.414-2.106-.039-3.797 1.66-3.797 3.767 0 1.206.338 2.336.864 3.24-1.73.453-3.27 1.13-3.985 3.428l-.601 2.186c-.113.377-.038.792.188 1.093.225.34.639.526 1.052.526h2.895c-.038.152-.113.302-.15.452l-.978 3.542c-.15.49-.037 1.018.301 1.433.3.413.752.64 1.278.64h3.985c-.113.262-.188.527-.263.79l-1.579 5.54c-.15.639-.038 1.317.376 1.844.414.528 1.015.83 1.654.83h28.91c.639 0 1.278-.302 1.654-.83a2.099 2.099 0 0 0 .376-1.882zM19.368 6.348a.49.49 0 0 0 .113-.149c.038-.038.038-.114.075-.15a6.861 6.861 0 0 1 6.015-3.542c3.12 0 5.752 2.07 6.654 4.899a3.54 3.54 0 0 1-3.533-1.395c-.264-.34-.715-.416-1.053-.152a.634.634 0 0 0-.263.378c-.038.037-.038.076-.075.112-1.053 2.148-4.587 3.053-8.61 2.26.113-.79.339-1.543.677-2.26zm2.106 4.033c3.007 0 5.488-.943 6.767-2.713a5.015 5.015 0 0 0 3.345 1.282c.301 0 .64-.039.94-.113.038.226.038.413.038.64 0 5.538-3.27 10.396-6.993 10.396-3.571 0-6.691-4.481-6.955-9.756.978.187 1.955.264 2.858.264zm-17.82 9.04l.526-1.881c.452-1.546 1.391-1.998 3.271-2.45.113-.037.226-.075.3-.15.189.15.34.263.565.378.112.074.225.074.338.074.263 0 .526-.15.677-.414a.778.778 0 0 0-.301-1.018c-.977-.527-1.692-1.998-1.692-3.504a2.28 2.28 0 0 1 2.294-2.298c.413 0 .751.075 1.09.264.113.038.188.075.3.075a5.697 5.697 0 0 0-.3 1.807c0 2.15.714 4.259 1.842 5.728-2.256.566-4.248 1.318-5.564 3.39H3.654zm36.617 14.847c-.076.075-.226.225-.489.225h-5.075-1.279-22.556c-.263 0-.413-.15-.489-.225a.69.69 0 0 1-.112-.529l1.579-5.5a7.685 7.685 0 0 1 5.45-5.312l.452-.113c.113-.039.3.038.413.15 2.068 2.376 4.624 2.563 7.106 2.563 2.48 0 5.037-.187 7.105-2.563a.482.482 0 0 1 .451-.15l.451.113a7.75 7.75 0 0 1 5.451 5.313l.677 2.335a.617.617 0 0 0 .15.264l.827 2.863a.747.747 0 0 1-.112.566z"/></svg></svg>