<svg width="27" height="42" xmlns="http://www.w3.org/2000/svg" xmlns:xlink="http://www.w3.org/1999/xlink" xmlns:svgjs="http://svgjs.com/svgjs" viewBox="0.183 0 26.634 42" fill="#a3acb5"><svg xmlns="http://www.w3.org/2000/svg" width="27" height="42" viewBox="1 1 26 40.999"><path paint-order="stroke fill markers" fill-rule="evenodd" d="M23.004 26.515L14.2 23.502a.61.61 0 0 0-.401 0l-6.331 2.166a.599.599 0 0 0-.376.764c.11.313.459.479.777.37L14 24.703l8.163 2.796c-.072.775-.316 2.523-1.12 4.594A17.796 17.796 0 0 1 14 40.688a17.796 17.796 0 0 1-7.043-8.595c-1.085-2.797-1.15-5.003-1.15-5.026a.606.606 0 0 0-.61-.585h-.013a.604.604 0 0 0-.597.612c.002.098.064 2.398 1.212 5.382a18.993 18.993 0 0 0 7.879 9.432c.098.062.21.091.322.091.112 0 .224-.029.322-.09a18.99 18.99 0 0 0 7.879-9.434c1.148-2.983 1.21-5.283 1.212-5.381a.6.6 0 0 0-.41-.579zm-5.032 3.39a.619.619 0 0 0-.863 0l-3.779 3.72-2.248-2.21a.616.616 0 0 0-.862 0 .594.594 0 0 0 0 .849l2.679 2.637a.62.62 0 0 0 .431.177.62.62 0 0 0 .432-.177l4.21-4.145a.595.595 0 0 0 0-.85zm6.888-8.545l-4.94-2.433a1.316 1.316 0 0 1-.745-1.184v-2.33a6.984 6.984 0 0 0 1.956-4.826v-3.85C21.131 3.572 17.932 1 14 1c-3.932 0-7.131 2.572-7.131 5.737v3.85c0 1.814.72 3.538 1.956 4.827v2.33c0 .503-.285.957-.744 1.183L3.14 21.36A3.784 3.784 0 0 0 1 24.768v3.793c0 1.038.859 1.884 1.914 1.884.337 0 .61-.269.61-.6 0-.334-.273-.6-.61-.6a.69.69 0 0 1-.694-.684v-3.793c0-.995.562-1.89 1.465-2.334L8.627 20a2.506 2.506 0 0 0 1.418-2.257V16.43c.126.084.255.162.386.236a.613.613 0 0 0 .834-.219.595.595 0 0 0-.222-.82c-1.822-1.038-2.954-2.97-2.954-5.04v-3.85c0-2.5 2.652-4.535 5.911-4.535 3.26 0 5.91 2.035 5.91 4.536v3.85c0 2.07-1.132 4.001-2.955 5.04a.595.595 0 0 0-.222.82.61.61 0 0 0 .833.22c.133-.075.262-.154.388-.238v1.314c0 .961.544 1.828 1.42 2.257l4.94 2.434a2.592 2.592 0 0 1 1.466 2.334v3.793a.69.69 0 0 1-.694.684.604.604 0 0 0-.61.6c0 .331.273.6.61.6 1.055 0 1.914-.846 1.914-1.884v-3.793c0-1.453-.82-2.76-2.14-3.408z"/></svg></svg>