<svg width="56" height="38" xmlns="http://www.w3.org/2000/svg" xmlns:xlink="http://www.w3.org/1999/xlink" xmlns:svgjs="http://svgjs.com/svgjs" viewBox="0 0.164 56 37.673" fill="#a8ca3f"><svg xmlns="http://www.w3.org/2000/svg" width="56" height="38" viewBox="2 2 55 37"><path paint-order="stroke fill markers" fill-rule="evenodd" d="M55.854 36.687H3.146c-.633 0-1.146.517-1.146 1.157C2 38.482 2.513 39 3.146 39h52.708A1.15 1.15 0 0 0 57 37.844c0-.64-.513-1.157-1.146-1.157zM12.312 22.813H5.437a1.15 1.15 0 0 0-1.145 1.156v13.875A1.15 1.15 0 0 0 5.437 39h6.875c.633 0 1.146-.517 1.146-1.155V23.97a1.15 1.15 0 0 0-1.146-1.156zm-1.145 13.874H6.583V25.125h4.584v11.562zM26.062 11.25h-6.875c-.632 0-1.145.518-1.145 1.156v25.438c0 .638.513 1.156 1.145 1.156h6.875a1.15 1.15 0 0 0 1.146-1.156V12.406c0-.638-.513-1.156-1.146-1.156zm-1.145 25.437h-4.584V13.562h4.584v23.125zm14.895-20.812h-6.875c-.632 0-1.145.518-1.145 1.156v20.813c0 .638.513 1.156 1.145 1.156h6.875a1.15 1.15 0 0 0 1.146-1.156V17.031a1.15 1.15 0 0 0-1.146-1.156zm-1.145 20.812h-4.584v-18.5h4.584v18.5zM53.562 2h-6.875c-.632 0-1.145.518-1.145 1.156v34.688A1.15 1.15 0 0 0 46.687 39h6.875a1.15 1.15 0 0 0 1.146-1.156V3.156c0-.638-.513-1.156-1.146-1.156zm-1.145 34.687h-4.584V4.312h4.584v32.375z"/></svg></svg>