<svg width="28" height="16" xmlns="http://www.w3.org/2000/svg" xmlns:xlink="http://www.w3.org/1999/xlink" xmlns:svgjs="http://svgjs.com/svgjs" viewBox="0 0.221 28 15.557" fill="#fd7532"><svg xmlns="http://www.w3.org/2000/svg" width="28" height="16" viewBox="2 1.999 27 15.001"><path paint-order="stroke fill markers" fill-rule="evenodd" d="M27.812 5.445c-.729-.803-1.767-1.246-2.922-1.246h-2.778V2.673a.67.67 0 0 0-.663-.674H8.214a.67.67 0 0 0-.663.674v2.345h-2.58a.67.67 0 0 0-.662.673c0 .37.298.673.663.673H8.22a.67.67 0 0 0 .663-.673V3.346h11.909v10.552H14.55c-.028 0-.055 0-.083.006a2.235 2.235 0 0 0-2.066-1.42c-.939 0-1.74.594-2.066 1.43a.672.672 0 0 0-.143-.016h-1.31v-2.35a.671.671 0 0 0-.662-.675h-.061-3.187a.671.671 0 0 0-.663.675c0 .369.298.673.663.673h2.58v2.345c0 .37.298.673.662.673h2.016A2.23 2.23 0 0 0 12.401 17c1.06 0 1.945-.752 2.171-1.761h7.943c.227 1.003 1.11 1.761 2.171 1.761 1.06 0 1.944-.752 2.17-1.761h1.481a.67.67 0 0 0 .663-.673V8.973c0-1.454-.414-2.677-1.188-3.528zm-15.41 10.214a.907.907 0 0 1-.901-.914c0-.504.403-.915.9-.915s.9.41.9.915a.907.907 0 0 1-.9.914zm12.284 0a.907.907 0 0 1-.9-.914c0-.504.403-.915.9-.915s.9.41.9.915a.914.914 0 0 1-.9.914zm2.988-1.761h-.928c-.331-.825-1.132-1.414-2.06-1.414-.928 0-1.729.583-2.06 1.414h-.509V5.545h2.779c1.74 0 2.778 1.284 2.778 3.433v4.92zM13.384 9.88a.682.682 0 0 0 0 .954.664.664 0 0 0 .47.197.674.674 0 0 0 .47-.197l1.706-1.733.006-.006c.01-.017.028-.028.039-.045.005-.011.01-.017.016-.028s.011-.016.022-.028l.017-.033c.005-.012.01-.017.016-.029l.017-.033c.005-.012.01-.018.01-.028.007-.011.007-.023.012-.034.005-.01.005-.022.011-.028.005-.01.005-.022.005-.034 0-.01.006-.022.006-.034 0-.01.006-.022.006-.038 0-.012.005-.017.005-.03a.546.546 0 0 0 0-.133c0-.012 0-.017-.005-.029 0-.01-.006-.022-.006-.038 0-.012-.006-.024-.006-.034 0-.011-.005-.023-.005-.034-.006-.011-.006-.022-.011-.028-.005-.011-.005-.022-.011-.034-.006-.01-.011-.017-.011-.028l-.017-.033c-.005-.012-.01-.017-.016-.028l-.017-.034c-.005-.012-.01-.017-.022-.028-.005-.011-.011-.017-.016-.029-.011-.017-.028-.028-.04-.044l-.005-.005-1.624-1.65a.656.656 0 0 0-.939 0 .681.681 0 0 0 0 .954l.492.499H2.663A.67.67 0 0 0 2 8.59c0 .37.298.674.663.674h11.29l-.569.616z"/></svg></svg>