<svg width="22" height="25" xmlns="http://www.w3.org/2000/svg" xmlns:xlink="http://www.w3.org/1999/xlink" xmlns:svgjs="http://svgjs.com/svgjs" viewBox="0.104 0 21.791 25" fill="#e87845"><svg xmlns="http://www.w3.org/2000/svg" width="22" height="25" viewBox="2.165 2.057 20.775 23.834"><path paint-order="stroke fill markers" fill-rule="evenodd" d="M19.955 17.074c-.424-.56-.976-.903-1.597-.98-.615-.073-1.238.115-1.806.562l-1.775 1.376a11.14 11.14 0 0 0-.36-.247c-.17-.113-.33-.218-.463-.328-1.366-1.116-2.562-2.504-3.658-4.241-.529-.86-.868-1.579-1.09-2.288.457-.323.885-.665 1.301-.995.158-.12.316-.25.473-.372 1.18-.919 1.347-2.276.425-3.447l-1.198-1.529c-.136-.172-.277-.35-.407-.53a23.075 23.075 0 0 0-.827-1.043c-.427-.54-.976-.865-1.586-.939-.61-.074-1.233.11-1.792.525l-.011.009L3.67 4.11A3.662 3.662 0 0 0 2.3 6.293c-.3 1.442-.037 2.849.184 3.78.542 2.278 1.505 4.441 3.045 6.826a23.708 23.708 0 0 0 7.088 7.077c1.084.683 2.541 1.516 4.244 1.834.105.015.214.035.314.046 1.156.143 2.178-.15 3.04-.881.007-.008.017-.013.024-.024.298-.28.634-.529.986-.793.24-.178.488-.365.73-.564.56-.454.893-1.018.969-1.633.076-.619-.116-1.244-.56-1.805l-2.41-3.082zm1.144 5.47c-.004 0-.005.002 0 0-.22.182-.444.35-.685.534-.363.268-.734.55-1.089.876-.572.48-1.199.658-1.98.565-.074-.011-.155-.02-.229-.034-1.475-.279-2.785-1.023-3.76-1.645-2.664-1.71-4.912-3.956-6.676-6.664-1.454-2.258-2.362-4.29-2.867-6.417-.312-1.302-.363-2.285-.176-3.19A2.305 2.305 0 0 1 4.51 5.17l1.916-1.49c.274-.199.55-.29.805-.26.315.039.547.26.688.439l.013.019c.27.317.524.648.79 1.001.136.179.277.357.416.543l1.199 1.524c.465.593.405 1.083-.19 1.543-.164.131-.322.259-.484.38-.473.375-.923.727-1.406 1.063-.011.007-.022.01-.028.019-.483.376-.455.807-.4 1.101.003.019.007.033.01.046.25.902.65 1.77 1.292 2.824l.005.004c1.172 1.87 2.466 3.368 3.947 4.575.19.154.387.288.575.41.169.111.329.217.463.324.018.012.037.032.055.04.16.109.315.166.48.188.416.053.708-.177.804-.252l1.921-1.496c.192-.149.487-.318.802-.284.31.041.542.266.676.456a.063.063 0 0 0 .009.007l2.419 3.087c.453.572.388 1.096-.188 1.561z"/></svg></svg>