<svg width="20" height="21" xmlns="http://www.w3.org/2000/svg" xmlns:xlink="http://www.w3.org/1999/xlink" xmlns:svgjs="http://svgjs.com/svgjs" viewBox="0.23 0 19.539 21" fill="#ff6b00"><svg xmlns="http://www.w3.org/2000/svg" width="20" height="21" viewBox="1.227 1.067 18.546 19.933"><path paint-order="stroke fill markers" fill-rule="evenodd" d="M19.75 6.2a73.483 73.483 0 0 1-.023-1.54c0-.384-.345-.694-.772-.694-3.304 0-5.82-.859-7.917-2.702a.834.834 0 0 0-1.077 0C7.865 3.107 5.35 3.966 2.046 3.966c-.427 0-.773.31-.773.695 0 .49-.01 1.002-.022 1.538-.106 5.008-.25 11.869 8.996 14.764A.929.929 0 0 0 10.5 21a.926.926 0 0 0 .253-.037C20 18.068 19.855 11.206 19.75 6.199zM10.5 19.561C2.57 16.96 2.69 11.261 2.796 6.226c.006-.303.013-.596.017-.881 3.094-.118 5.569-.965 7.687-2.63 2.118 1.665 4.593 2.512 7.688 2.63.004.285.01.578.017.881.106 5.035.226 10.733-7.705 13.336zm2.66-10.955l-3.728 3.37-1.592-1.436a.83.83 0 0 0-1.092 0 .652.652 0 0 0 0 .987l2.137 1.93c.151.136.349.201.547.201a.808.808 0 0 0 .546-.202l4.275-3.862a.653.653 0 0 0 0-.988.839.839 0 0 0-1.093 0z"/></svg></svg>