<svg width="19" height="24" viewBox="0 0 19 24" fill="none" xmlns="http://www.w3.org/2000/svg">
<path fill-rule="evenodd" clip-rule="evenodd" d="M9.49332 13.3948H9.41916C8.0651 13.3669 6.96968 12.8779 6.16553 11.9402C4.38619 9.87074 4.68192 6.32742 4.71426 5.98984C4.82993 3.43397 6.01294 2.21894 6.98356 1.65172C7.94958 1.08529 8.95711 0.998027 9.46998 0.998027H9.49789H9.5162H9.54871C10.4822 1.02057 11.3189 1.24697 12.0351 1.67238C12.9966 2.24086 14.1611 3.45216 14.2766 5.98984C14.309 6.32742 14.6049 9.87074 12.8254 11.9402C12.0167 12.8779 10.9214 13.3669 9.56717 13.3948H9.52093H9.49332ZM5.95102 6.08661C5.94977 6.09379 5.94839 6.10176 5.94839 6.11031C5.94366 6.13596 5.62933 9.39019 7.09464 11.0847C7.67233 11.7611 8.45327 12.0994 9.46998 12.1078H9.49332H9.5162C10.5378 12.0994 11.3141 11.7611 11.8966 11.0847C13.3662 9.38323 13.0427 6.14242 13.0381 6.11031C13.0335 6.10041 13.0335 6.08434 13.0335 6.07065C12.8902 2.8411 10.7688 2.31776 9.52093 2.29122H9.48401H9.4654C8.45787 2.29122 6.10541 2.65874 5.95297 6.07065C5.95297 6.07537 5.95204 6.08073 5.95102 6.08661ZM18.9909 19.2557V19.2721C18.9956 19.5178 19.0002 20.7879 18.769 21.4229C18.7228 21.5471 18.635 21.6518 18.5287 21.7237L18.5243 21.7266C18.332 21.8513 15.0187 24.0007 9.50705 24.0007C3.94705 24.0007 0.62415 21.8181 0.48544 21.7237C0.374516 21.6518 0.291356 21.5471 0.245112 21.4229C0.000207901 20.7839 0.00478399 19.5127 0.00935996 19.2675V19.2526C0.0139359 19.2151 0.013936 19.1757 0.013936 19.1323L0.0141435 19.1253C0.0420325 18.1811 0.106826 15.9874 2.10776 15.2779C2.11355 15.2766 2.11936 15.2748 2.12554 15.2728C2.13401 15.2702 2.14315 15.2673 2.15383 15.2651C4.24751 14.7148 5.97143 13.4789 5.98991 13.4652C6.27188 13.2588 6.66007 13.3294 6.85888 13.6242C7.05757 13.9115 6.98829 14.3119 6.70629 14.5148C6.70306 14.517 6.69687 14.5213 6.68779 14.5276C6.47582 14.6754 4.69373 15.9181 2.48663 16.5034C1.40966 16.8993 1.28958 18.0854 1.25722 19.1692C1.25722 19.1935 1.25594 19.2154 1.25474 19.236C1.25366 19.2544 1.25265 19.2718 1.25265 19.2889C1.24334 19.7156 1.2757 20.3805 1.34971 20.7601C2.10303 21.1999 5.0562 22.7172 9.50247 22.7172C13.967 22.7172 16.9018 21.2064 17.6507 20.7652C17.7245 20.3862 17.7523 19.7228 17.7477 19.2954C17.743 19.2557 17.743 19.2169 17.743 19.1757C17.7106 18.0897 17.5905 16.9058 16.5136 16.5061C14.2119 15.8968 12.3725 14.5769 12.2939 14.5188C12.0119 14.3156 11.9428 13.9165 12.1415 13.6264C12.3401 13.3345 12.7283 13.266 13.0103 13.4698C13.0288 13.4839 14.762 14.7193 16.8464 15.2689C16.8548 15.2724 16.865 15.275 16.8748 15.2775C16.881 15.2791 16.8872 15.2807 16.8926 15.2825C18.8936 15.9874 18.9582 18.1812 18.9861 19.1291L18.9863 19.136C18.9863 19.158 18.9875 19.1787 18.9886 19.1989C18.9898 19.2181 18.9909 19.2368 18.9909 19.2557Z" fill="#E87845"/>
</svg>
